<svg xmlns="http://www.w3.org/2000/svg" width="585.315" height="372.29" viewBox="0 0 585.315 372.29">
  <g id="Group_4" data-name="Group 4" transform="translate(-667.343 -187.71)">
    <g id="Invite-pana_2_" data-name="Invite-pana (2)" transform="translate(578.366 118.39)">
      <g id="freepik--background-complete--inject-34">
        <path id="Path_108" data-name="Path 108" d="M201,382.66c21.16-18.56,23.09-48.87,19.23-75.51-.64-4.44-.67-9.2-3.23-12.88s-7.8-5.81-11.59-3.49c-3.14,1.92-4.16,5.94-5.66,9.33a26.33,26.33,0,0,1-9.36,11.15c-2.68,1.79-6.1,3.08-9.08,1.84-4.08-1.7-5.12-7-5.58-11.41l-2.58-24.83c-.47-4.44-.95-9-2.8-13s-5.33-7.64-9.68-8.35-9.3,2.29-9.72,6.73c-.17,1.85.41,3.69.49,5.54s-.56,4-2.25,4.7-3.63-.35-5.1-1.5c-5.07-4-8.82-9.41-12.36-14.83s-7-11-11.7-15.41-10.87-7.67-17.27-7.33-12.74,5-13.66,11.43,3.44,12.38,8,17a99.52,99.52,0,0,0,22.79,17.38c1.51.84,3.15,1.75,3.86,3.33,1.29,2.86-1.19,6.1-4,7.4-3.19,1.47-6.81,1.52-10.23,2.31s-7,2.73-8,6.14c-1.31,4.74,3,9.08,7.08,11.78a85.54,85.54,0,0,0,26.72,11.73c3.4.83,6.95,1.5,9.83,3.51s4.92,5.81,3.67,9.11-5.22,4.76-8.71,4.5-6.75-1.77-10.15-2.64c-6.35-1.63-14.18-.34-17.51,5.36-2.18,3.75-1.88,8.6-.12,12.59s4.78,7.25,7.94,10.22c11,10.39,24.57,18.25,39.26,21.59s28,3.23,41.45-3.46" fill="#ebebeb"/>
        <path id="Path_109" data-name="Path 109" d="M203.52,402.44a195.28,195.28,0,0,0-11.28-35.78,402.456,402.456,0,0,0-20.51-41.08q-3-5.31-5.93-10.49c-2-3.44-3.89-6.85-6-10.07a197.761,197.761,0,0,0-13.13-17.8c-4.45-5.46-8.87-10.48-13-15.15s-8.17-8.92-12-12.65a157.276,157.276,0,0,0-19.19-16.27c-2.41-1.74-4.32-3-5.63-3.88l-1.49-1a3.87,3.87,0,0,0-.52-.31,3.21,3.21,0,0,0,.47.38l1.45,1c1.28.9,3.16,2.22,5.53,4a167.541,167.541,0,0,1,19,16.43c3.75,3.75,7.7,8,11.85,12.69s8.54,9.71,13,15.17a203.894,203.894,0,0,1,13,17.76c2.09,3.21,4,6.59,6,10L171,326a407.887,407.887,0,0,1,20.53,41A199.871,199.871,0,0,1,203,402.56" fill="#e0e0e0"/>
        <path id="Path_110" data-name="Path 110" d="M159.57,305a9.419,9.419,0,0,0,.22-1.94c.1-1.25.18-3.06.25-5.31.14-4.49.12-10.69.08-17.53s0-13,.23-17.51c.1-2.24.19-4.05.28-5.3a8.829,8.829,0,0,0,0-2,9,9,0,0,0-.35,1.92c-.18,1.24-.37,3.05-.54,5.29-.36,4.48-.52,10.7-.47,17.55s.12,12.85.16,17.52V303a8.551,8.551,0,0,0,.14,2Z" fill="#e0e0e0"/>
        <path id="Path_111" data-name="Path 111" d="M101.33,300.64a12.423,12.423,0,0,0,2.3,0c1.48,0,3.62-.09,6.26-.08,5.29,0,12.6.23,20.65.84s15.31,1.52,20.55,2.31c2.62.37,4.73.73,6.19,1a11.448,11.448,0,0,0,2.29.3,13,13,0,0,0-2.23-.61c-1.45-.34-3.55-.79-6.16-1.25-5.23-.93-12.51-1.91-20.58-2.54a203.006,203.006,0,0,0-20.71-.61c-2.66.07-4.8.21-6.28.34a13.059,13.059,0,0,0-2.28.3Z" fill="#e0e0e0"/>
        <path id="Path_112" data-name="Path 112" d="M191.42,365.69a3.27,3.27,0,0,0,.31-.74c.21-.59.45-1.31.75-2.18.64-1.88,1.5-4.64,2.51-8.06,2-6.84,4.55-16.38,7.17-26.94s5.05-20.12,6.94-27c.92-3.35,1.69-6.09,2.25-8.14.25-.88.44-1.62.61-2.22a3,3,0,0,0,.15-.79,4,4,0,0,0-.31.74c-.2.59-.45,1.31-.75,2.17-.64,1.89-1.5,4.65-2.51,8.07-2,6.84-4.54,16.38-7.17,26.95s-5.05,20.11-6.93,27c-.93,3.35-1.69,6.1-2.26,8.14l-.6,2.22A2.89,2.89,0,0,0,191.42,365.69Z" fill="#e0e0e0"/>
        <path id="Path_113" data-name="Path 113" d="M112.89,349.61a3,3,0,0,0,.79.23l2.28.49,8.41,1.74c7.11,1.47,16.89,3.61,27.7,6s20.63,4.43,27.76,5.76c3.57.66,6.46,1.16,8.46,1.47l2.31.34a3.87,3.87,0,0,0,.82.07,3,3,0,0,0-.79-.23l-2.28-.5-8.41-1.73c-7.1-1.47-16.89-3.61-27.7-6s-20.62-4.43-27.76-5.75c-3.56-.66-6.45-1.17-8.46-1.47l-2.31-.35a2.83,2.83,0,0,0-.82-.07Z" fill="#e0e0e0"/>
        <g id="Group_5" data-name="Group 5" transform="translate(84 15.96)">
          <path id="Path_114" data-name="Path 114" d="M210.77,53.38l60.06,38.11-24.54,41.72L184.76,92.72Z" fill="#ebebeb"/>
          <path id="Path_115" data-name="Path 115" d="M270.83,91.49a.78.78,0,0,1-.22.06l-.67.13-2.56.47-9.44,1.6L226.58,98.9h-.22l-.07-.21c-.16-.45-.33-1-.5-1.44-4.19-12.1-8-23-10.73-31-1.33-3.94-2.42-7.15-3.19-9.41-.36-1.09-.64-2-.84-2.57-.09-.27-.15-.5-.21-.68a.82.82,0,0,1,0-.23,2,2,0,0,1,.1.22l.26.65c.22.62.54,1.47.93,2.54.81,2.25,1.95,5.44,3.35,9.36,2.79,8,6.63,18.89,10.87,31l.5,1.45-.29-.17,31.39-5L267.35,92l2.58-.37.67-.08A.58.58,0,0,1,270.83,91.49Z" fill="#e0e0e0"/>
          <path id="Path_116" data-name="Path 116" d="M184.76,92.72c0-.14,8.11-2.29,18.2-4.82s18.3-4.45,18.33-4.31-8.11,2.3-18.2,4.82S184.79,92.86,184.76,92.72Z" fill="#e0e0e0"/>
          <path id="Path_117" data-name="Path 117" d="M246.29,133.21c-.14,0-1.52-8.1-3.08-18.14s-2.7-18.2-2.56-18.22,1.52,8.1,3.08,18.14S246.43,133.18,246.29,133.21Z" fill="#e0e0e0"/>
        </g>
        <path id="Path_118" data-name="Path 118" d="M609.1,167.52l57.51-9.35,7.68,38.9-59.71,8.7Z" fill="#f5f5f5"/>
        <path id="Path_119" data-name="Path 119" d="M666.61,158.17a4.1,4.1,0,0,1-.43.61l-1.31,1.68C663.69,162,662,164,660,166.59l-16.39,20.23-.14.17-.19-.1-1.1-.61-23.43-13.17-7.08-4L609.74,168a5.441,5.441,0,0,1-.65-.43,5.191,5.191,0,0,1,.7.33l2,1,7.16,3.9,23.51,13,1.09.61-.33.07,16.52-20.14,5-6q.87-1,1.38-1.62a4.906,4.906,0,0,1,.49-.55Z" fill="#e0e0e0"/>
        <path id="Path_120" data-name="Path 120" d="M614.58,205.77c-.12-.08,3.68-5.85,8.49-12.88s8.79-12.68,8.91-12.59-3.68,5.84-8.48,12.88S614.7,205.85,614.58,205.77Z" fill="#e0e0e0"/>
        <path id="Path_121" data-name="Path 121" d="M674.29,197.07c-.09.11-5.37-4.1-11.79-9.4S651,178,651.05,177.88s5.37,4.09,11.79,9.39S674.38,197,674.29,197.07Z" fill="#e0e0e0"/>
      </g>
      <g id="freepik--Envelopes--inject-34">
        <path id="Path_122" data-name="Path 122" d="M449.08,119.65l98.35-26.36,20.18,66.28-102.28,25.6Z" fill="#455a64"/>
        <path id="Path_123" data-name="Path 123" d="M465.33,185.17c-.13-.06,5.29-10.25,12.09-22.74s12.42-22.56,12.55-22.5-5.29,10.25-12.09,22.75S465.46,185.24,465.33,185.17Z" fill="#263238"/>
        <path id="Path_124" data-name="Path 124" d="M567.61,159.57c-.08.12-10-6.36-22.1-14.47s-21.88-14.78-21.8-14.9,10,6.35,22.09,14.47S567.69,159.45,567.61,159.57Z" fill="#263238"/>
        <path id="Path_125" data-name="Path 125" d="M449.08,119.65a2.5,2.5,0,0,1,.33.13l.94.44,3.58,1.73,13.16,6.43,43.3,21.4.53.26-.34.09,26-40.27c3.33-5.11,6-9.26,7.91-12.15l2.17-3.29.58-.85a1.752,1.752,0,0,1,.21-.28,2.333,2.333,0,0,1-.17.31l-.53.88-2.09,3.34-7.77,12.24L511,150.41l-.12.2-.21-.11-.53-.26L466.9,128.71l-13.08-6.58-3.54-1.82-.92-.48A1.391,1.391,0,0,1,449.08,119.65Z" fill="#263238"/>
        <path id="Path_126" data-name="Path 126" d="M109.81,147.43l96.51,9.65-4.35,65.85-99.75-11.64Z" fill="#455a64"/>
        <path id="Path_127" data-name="Path 127" d="M102.22,211.29c-.1-.11,8.15-7.36,18.42-16.2s18.68-15.92,18.77-15.81-8.15,7.36-18.43,16.2S102.31,211.4,102.22,211.29Z" fill="#263238"/>
        <path id="Path_128" data-name="Path 128" d="M202,222.93c-.11.09-6.75-9-14.82-20.33s-14.51-20.55-14.4-20.63,6.76,9,14.83,20.33S202.09,222.85,202,222.93Z" fill="#263238"/>
        <path id="Path_129" data-name="Path 129" d="M109.81,147.43a3.072,3.072,0,0,1,.25.23l.69.7,2.62,2.75,9.55,10.16,31.38,33.65.38.41h-.34l36.71-27.12L202.2,160l3-2.19.8-.56a1.34,1.34,0,0,1,.28-.18s-.08.08-.25.22l-.77.6-3,2.28c-2.64,2-6.4,4.8-11,8.29l-36.62,27.25-.19.14-.16-.17-.38-.41-31.27-33.76-9.43-10.27-2.55-2.82-.65-.74A2,2,0,0,1,109.81,147.43Z" fill="#263238"/>
        <path id="Path_172" data-name="Path 172" d="M413.26,130.21A24.53,24.53,0,1,0,402,103.65a24.53,24.53,0,0,0,11.26,26.56Z" transform="translate(-213.952 11.163)" fill="#ebebeb"/>
        <path id="Path_175" data-name="Path 175" d="M413.26,130.21A24.53,24.53,0,1,0,402,103.65a24.53,24.53,0,0,0,11.26,26.56Z" transform="translate(184.526 25.85)" fill="#ebebeb"/>
        <path id="Path_173" data-name="Path 173" d="M418.41,106.47a7.47,7.47,0,1,0,7.38-7.55A7.47,7.47,0,0,0,418.41,106.47Z" transform="translate(-213.952 11.163)" fill="#fff"/>
        <path id="Path_176" data-name="Path 176" d="M418.41,106.47a7.47,7.47,0,1,0,7.38-7.55A7.47,7.47,0,0,0,418.41,106.47Z" transform="translate(184.526 25.85)" fill="#fff"/>
        <path id="Path_174" data-name="Path 174" d="M413.22,127.13v3.08a24.51,24.51,0,0,0,25.8-.32v-3.07a12.91,12.91,0,0,0-25.81.31Z" transform="translate(-213.952 11.163)" fill="#fff"/>
        <path id="Path_177" data-name="Path 177" d="M413.22,127.13v3.08a24.51,24.51,0,0,0,25.8-.32v-3.07a12.91,12.91,0,0,0-25.81.31Z" transform="translate(184.526 25.85)" fill="#fff"/>
      </g>
      <g id="freepik--Plants--inject-34">
        <path id="Path_130" data-name="Path 130" d="M660.86,246.63s-8.66-5.62-19,15.07-14.21,32.6-14.21,32.6-2.74,4.34-5.73,1.54-7.12-10.76-12.14-9.28c-5.22,1.54-6.89,7.39-5.82,15.95s2.72,27.41,2.86,29.12-.8,4.15-3.14,2.57-15.86-16.38-22.5-9.55.26,30.2,1,32.77.21,3.68-1,4.32-5.29-4.75-9.31-8.81-9.38-8-12.88-3.78S554.5,371,571.47,399.41l8.72,12.65,15.4-1c32.84-4.12,46.09-15.72,47.3-21.1s-5.25-7.16-10.92-7.83-12.43-.55-12.67-1.91.33-2.43,2.79-3.46,25.12-10,26.42-19.41-18.69-11-21.37-11.86-1.31-3.13.09-4.05,17.31-11.24,24.71-15.67,11-9.34,9-14.4c-1.92-4.87-10.74-3.22-14.79-3.86s-2.31-5.46-2.31-5.46,7-10.39,17-31.27-.08-24.27-.08-24.27" fill="#d9b15c"/>
        <path id="Path_131" data-name="Path 131" d="M651.57,265.14a4.584,4.584,0,0,1-.18.45l-.59,1.3-2.31,4.95c-2,4.3-5,10.51-8.66,18.16-7.36,15.3-17.72,36.35-29.23,59.57s-21.92,44.25-29.37,59.51c-3.71,7.61-6.71,13.79-8.8,18.08-1,2.11-1.84,3.77-2.4,4.91l-.64,1.27-.23.43a4.582,4.582,0,0,1,.18-.45l.59-1.29,2.31-5c2-4.3,5-10.5,8.66-18.15,7.36-15.31,17.72-36.36,29.24-59.58s21.91-44.24,29.36-59.5l8.81-18.09,2.4-4.91.63-1.27Z" fill="#263238"/>
        <path id="Path_132" data-name="Path 132" d="M615.11,297.94a4.24,4.24,0,0,1,.41,1c.23.68.53,1.66.89,2.89.72,2.45,1.63,5.86,2.56,9.64s1.71,7.09,2.33,9.69c.29,1.15.53,2.13.72,2.93a3.939,3.939,0,0,1,.22,1.09,4.814,4.814,0,0,1-.41-1c-.23-.67-.53-1.66-.88-2.89-.7-2.46-1.56-5.88-2.49-9.66s-1.76-7.07-2.4-9.67c-.29-1.15-.54-2.12-.74-2.92A4.815,4.815,0,0,1,615.11,297.94Z" fill="#263238"/>
        <path id="Path_133" data-name="Path 133" d="M623.65,325.48c0-.14,6.91-2.32,15.52-4.87s15.62-4.51,15.66-4.37-6.91,2.32-15.52,4.87S623.69,325.62,623.65,325.48Z" fill="#263238"/>
        <path id="Path_134" data-name="Path 134" d="M604.36,360.34a4.59,4.59,0,0,1,1.14-.07h3.08c2.6,0,6.2-.06,10.16-.24s7.55-.47,10.14-.69l3.08-.26a5.11,5.11,0,0,1,1.13,0,4.36,4.36,0,0,1-1.11.24c-.72.12-1.76.27-3.06.43-2.59.32-6.18.66-10.15.84s-7.59.17-10.19.09c-1.31,0-2.36-.09-3.09-.14a5.381,5.381,0,0,1-1.13-.2Z" fill="#263238"/>
        <path id="Path_135" data-name="Path 135" d="M591.16,337.13a4.13,4.13,0,0,1,.61.85c.37.56.89,1.39,1.51,2.42,1.26,2.05,3,4.9,4.83,8.07s3.51,6,4.69,8.15l1.37,2.5a4.631,4.631,0,0,1,.44.95,3.9,3.9,0,0,1-.62-.85c-.37-.56-.88-1.39-1.51-2.41-1.26-2.05-3-4.91-4.82-8.08s-3.52-6.05-4.69-8.15c-.59-1.05-1.06-1.9-1.37-2.5a3.26,3.26,0,0,1-.44-.95Z" fill="#263238"/>
        <path id="Path_136" data-name="Path 136" d="M570.22,365.74a6.763,6.763,0,0,1,.77,1.09l2,3.1c1.63,2.62,3.84,6.26,6.26,10.29s4.59,7.71,6.13,10.38c.72,1.28,1.33,2.34,1.81,3.18a7.4,7.4,0,0,1,.6,1.2,6.24,6.24,0,0,1-.78-1.1L585,390.79c-1.63-2.62-3.85-6.26-6.27-10.3s-4.58-7.71-6.12-10.38l-1.81-3.17a6.45,6.45,0,0,1-.58-1.2Z" fill="#263238"/>
        <path id="Path_137" data-name="Path 137" d="M587.52,394.16A9.281,9.281,0,0,1,589,394l3.91-.17c3.3-.14,7.85-.35,12.88-.72s9.56-.82,12.85-1.16l3.89-.4a6.407,6.407,0,0,1,1.43-.09,8.788,8.788,0,0,1-1.4.29c-.92.15-2.24.35-3.88.56-3.28.44-7.82.95-12.85,1.32s-9.6.52-12.91.57H589A6.491,6.491,0,0,1,587.52,394.16Z" fill="#263238"/>
        <path id="Path_138" data-name="Path 138" d="M158,383.42c-4.76.65-9,3.31-12.47,6.67-1.84,1.81-3.58,4-3.9,6.52s1.35,5.5,3.92,5.7a6.54,6.54,0,0,0,4.21-1.6c3-2.17,6-5.06,9.72-4.94,2.12.07,4.25,1.16,6.27.51a4.77,4.77,0,0,0,3-4.94,8.18,8.18,0,0,0-3-5.27A9.23,9.23,0,0,0,158,383.42Z" fill="#d9b15c"/>
        <g id="Group_2" data-name="Group 2" opacity="0.3">
          <path id="Path_139" data-name="Path 139" d="M158,383.42c-4.76.65-9,3.31-12.47,6.67-1.84,1.81-3.58,4-3.9,6.52s1.35,5.5,3.92,5.7a6.54,6.54,0,0,0,4.21-1.6c3-2.17,6-5.06,9.72-4.94,2.12.07,4.25,1.16,6.27.51a4.77,4.77,0,0,0,3-4.94,8.18,8.18,0,0,0-3-5.27A9.23,9.23,0,0,0,158,383.42Z"/>
        </g>
        <path id="Path_140" data-name="Path 140" d="M155.18,362.35c0,4.55-4.86,6.45-8.09,5.94s-5.94-2.64-8.49-4.69c-5.82-4.7-11.86-9.67-14.8-16.55a12.2,12.2,0,0,1-1.14-6.52,6.44,6.44,0,0,1,3.8-5.14c2.49-.91,5.23.23,7.54,1.52a52.4,52.4,0,0,1,17.2,15.48c2.1,3,3.94,6.33,4,10" fill="#d9b15c"/>
        <g id="Group_3" data-name="Group 3" opacity="0.3">
          <path id="Path_141" data-name="Path 141" d="M155.18,362.35c0,4.55-4.86,6.45-8.09,5.94s-5.94-2.64-8.49-4.69c-5.82-4.7-11.86-9.67-14.8-16.55a12.2,12.2,0,0,1-1.14-6.52,6.44,6.44,0,0,1,3.8-5.14c2.49-.91,5.23.23,7.54,1.52a52.4,52.4,0,0,1,17.2,15.48c2.1,3,3.94,6.33,4,10" fill="#fff"/>
        </g>
        <path id="Path_142" data-name="Path 142" d="M164.12,362.61c-4.25-1.12-7.51-4.83-8.9-9a24.12,24.12,0,0,1-.1-13,39.84,39.84,0,0,1,6.35-14,14.25,14.25,0,0,1,4.29-4.25,6.26,6.26,0,0,1,5.83-.39c2.67,1.37,3.42,4.78,3.75,7.76a101,101,0,0,1,.49,15.84c-.2,4.25-.74,8.68-3.12,12.2s-5.86,5.75-9.17,4.71" fill="#d9b15c"/>
        <path id="Path_143" data-name="Path 143" d="M187.63,408.29a8.28,8.28,0,0,1-1.17-1.25l-3-3.53a65.365,65.365,0,0,0-4.75-4.95,52.068,52.068,0,0,0-6.61-5.14,29.789,29.789,0,0,0-7.51-3.58,15.29,15.29,0,0,0-6.7-.55,14.711,14.711,0,0,0-4.34,1.39,8.11,8.11,0,0,1-1.52.77,8.469,8.469,0,0,1,1.39-1,13.27,13.27,0,0,1,4.4-1.64,15.329,15.329,0,0,1,6.95.42,29.12,29.12,0,0,1,7.71,3.61,48.85,48.85,0,0,1,6.68,5.26,57.736,57.736,0,0,1,4.68,5.1c1.25,1.53,2.2,2.8,2.86,3.68a7.872,7.872,0,0,1,.93,1.41Z" fill="#263238"/>
        <path id="Path_144" data-name="Path 144" d="M185.33,405.56a3.409,3.409,0,0,1-.49-.62l-1.29-1.84c-1.11-1.6-2.74-3.91-4.82-6.7-4.15-5.61-10.17-13.15-17.2-21.14s-13.77-14.9-18.85-19.68c-1.25-1.21-2.41-2.28-3.45-3.2s-1.9-1.74-2.64-2.37l-1.69-1.49a3.53,3.53,0,0,1-.56-.55,2.889,2.889,0,0,1,.65.44l1.77,1.39c.77.6,1.68,1.38,2.73,2.29s2.25,1.94,3.53,3.13a254.326,254.326,0,0,1,19,19.57c7,8,13,15.62,17.06,21.31,2,2.84,3.61,5.2,4.66,6.85l1.18,1.92a3.58,3.58,0,0,1,.41.69Z" fill="#263238"/>
        <path id="Path_145" data-name="Path 145" d="M174.59,390.35a15.446,15.446,0,0,1-1.33-1.94c-.8-1.28-1.88-3.19-3.07-5.62a85.389,85.389,0,0,1-3.63-8.77,82.3,82.3,0,0,1-3.12-11.21,58.49,58.49,0,0,1-.87-21.05,27.73,27.73,0,0,1,.77-3.58c.13-.52.23-1,.38-1.45l.44-1.18a13.749,13.749,0,0,1,.89-2.17c.18.06-1.22,3.14-2,8.45a61.85,61.85,0,0,0,1.06,20.84,88.357,88.357,0,0,0,3,11.13,94.238,94.238,0,0,0,3.47,8.78c1.12,2.45,2.13,4.38,2.85,5.7A12.807,12.807,0,0,1,174.59,390.35Z" fill="#263238"/>
      </g>
      <g id="freepik--Device--inject-34">
        <rect id="Rectangle_165" data-name="Rectangle 165" width="401.73" height="265.66" rx="14.57" transform="translate(182.98 172.35)" fill="#263238"/>
        <path id="Path_146" data-name="Path 146" d="M166.18,418.36H601.42v5.45a17.8,17.8,0,0,1-17.8,17.8H184a17.8,17.8,0,0,1-17.8-17.8v-5.45Z" fill="#263238"/>
        <rect id="Rectangle_166" data-name="Rectangle 166" width="379.04" height="224.35" transform="translate(193.76 182.9)" fill="#455a64"/>
        <path id="Path_147" data-name="Path 147" d="M344.24,418.36l5.4,8.59h76l5.02-8.59Z" fill="#455a64"/>
        <rect id="Rectangle_167" data-name="Rectangle 167" width="364.2" height="216.03" rx="3.27" transform="translate(201.57 190.5)" fill="#ebebeb"/>
        <rect id="Rectangle_168" data-name="Rectangle 168" width="364.2" height="200.2" transform="translate(201.57 206.33)" fill="#fafafa"/>
        <path id="Path_148" data-name="Path 148" d="M231.44,198.84a2.91,2.91,0,1,1-2.91-2.91,2.91,2.91,0,0,1,2.91,2.91Z" fill="#455a64"/>
        <path id="Path_149" data-name="Path 149" d="M213.81,198.84a2.91,2.91,0,1,1-2.91-2.91A2.91,2.91,0,0,1,213.81,198.84Z" fill="#455a64"/>
        <path id="Path_150" data-name="Path 150" d="M222.27,198.84a2.9,2.9,0,1,1-.846-2.057,2.91,2.91,0,0,1,.846,2.057Z" fill="#455a64"/>
        <path id="Path_151" data-name="Path 151" d="M581.26,418.36c0,.14-89.17.26-199.13.26S183,418.5,183,418.36s89.15-.26,199.15-.26S581.26,418.22,581.26,418.36Z" fill="#455a64"/>
        <g id="freepik--Invitation--inject-35" transform="translate(132.335 48.805)">
          <path id="Path_59" data-name="Path 59" d="M325.34,345.09H174.25V217.28l75.53-47.97,75.56,47.97Z" fill="#d9b15c"/>
          <path id="Path_60" data-name="Path 60" d="M325.34,345.09H174.25V217.28l75.53-47.97,75.56,47.97Z" opacity="0.2"/>
          <rect id="Rectangle_153" data-name="Rectangle 153" width="134.05" height="172.08" transform="translate(182.77 163.23)" fill="#fff"/>
          <path id="Path_61" data-name="Path 61" d="M316.82,335.31l-134,.23h-.24v-.23l-.14-172.08v-.37h.38l134,.1h.26v.27Zm0,0-.27-172.08.27.26-134,.11.37-.37L183,335.31l-.23-.24Z" fill="#dbdbdb"/>
          <path id="Path_62" data-name="Path 62" d="M311.43,269.4q.19,7.55.29,15.08c0,5,.15,10.06.15,15.09l.06,15.08-.06,15.09v.44h-.44c-5.26,0-10.52-.08-15.78-.14s-10.52-.17-15.78-.3c5.26-.13,10.52-.25,15.78-.3s10.52-.14,15.78-.14l-.44.44-.06-15.09.06-15.08c0-5,.1-10.06.15-15.09S311.3,274.43,311.43,269.4Z" fill="#d9b15c"/>
          <path id="Path_63" data-name="Path 63" d="M188.15,229.14q-.19-7.54-.29-15.09c-.05-5-.15-10.05-.15-15.08l-.06-15.09.06-15.08v-.45h.44c5.26,0,10.52.08,15.78.14s10.52.17,15.78.3c-5.26.13-10.52.25-15.78.3s-10.52.14-15.78.14l.44-.44.06,15.08L188.59,199c0,5-.1,10.06-.15,15.08S188.28,224.11,188.15,229.14Z" fill="#d9b15c"/>
          <path id="Path_64" data-name="Path 64" d="M249.87,168.8l15.39-.25,15.39-.14c5.13-.06,10.26,0,15.39-.07h15.89v.5l-.05,15.08L311.81,199c-.08,10.06-.17,20.11-.38,30.17-.21-10.06-.3-20.11-.38-30.17L311,183.88l-.05-15.08.5.5L296,169.25c-5.13,0-10.26,0-15.39-.07L265.26,169Z" fill="#d9b15c"/>
          <path id="Path_65" data-name="Path 65" d="M249.71,329.74c-10.26.19-20.52.29-30.78.36s-20.52.08-30.78.13h-.49V312.15l.06-17.58.14-17.59.26-17.58.26,17.58.14,17.59.06,17.58v17.59l-.49-.49c10.26.05,20.52,0,30.78.12S239.45,329.55,249.71,329.74Z" fill="#d9b15c"/>
          <path id="Path_66" data-name="Path 66" d="M216.15,185.31v-.44h7.12v.44H221v16.92h2.27v.43h-7.12v-.43h2V185.31Z" fill="#d9b15c"/>
          <path id="Path_67" data-name="Path 67" d="M231.57,202.66h-6v-.41h1.81V190.48h-2v-.41H226a18.55,18.55,0,0,0,3.86-.35v2.73H230a4.3,4.3,0,0,1,4.05-2.93c3.4,0,4.14,2.22,4.14,5.62v7.11H240v.41h-6.05v-.41h1.81v-6.73c0-2.22,0-5.23-2.22-5.23-3.12,0-3.75,3.89-3.75,7v4.95h1.81Z" fill="#d9b15c"/>
          <path id="Path_68" data-name="Path 68" d="M252.6,193.9c0-1.91-.47-3.88-2.16-3.88-.17,0-.28.08-.28.24s.09.22.25.25a1,1,0,0,1,.77,1,1.33,1.33,0,0,1-1.45,1.29,1.47,1.47,0,0,1-1.51-1.51,1.86,1.86,0,0,1,2-1.81c2.27,0,2.9,2,2.9,4.27,0,4.52-2.46,9.42-5.34,9.42-3.12,0-5-4.52-5-11.2v-1.53h-1.94v-.41h.57a18.49,18.49,0,0,0,3.86-.35v1.67c0,4.54.85,10.59,3.48,10.59C250.55,202,252.6,197.68,252.6,193.9Z" fill="#d9b15c"/>
          <path id="Path_69" data-name="Path 69" d="M259.75,202.25h1.81v.41h-6.05v-.41h1.8V190.48h-1.94v-.41h.57a18,18,0,0,0,3.81-.35Zm-1.31-17.93a1.6,1.6,0,0,1,1.61,1.62,1.58,1.58,0,0,1-1.61,1.59,1.56,1.56,0,0,1-1.59-1.59,1.58,1.58,0,0,1,1.59-1.62Z" fill="#d9b15c"/>
          <path id="Path_70" data-name="Path 70" d="M267.8,199.79c0,1.86,0,2.68.74,2.68,1,0,2-1.56,2.39-2.52l.43.17c-.6,1.53-1.78,3.09-3.42,3.09-2.35,0-2.57-1.67-2.57-4V190.5h-1.94v-.41h.19c2.21,0,3.42-1.42,3.83-3.61h.35v3.61h3.32v.41H267.8Z" fill="#d9b15c"/>
          <path id="Path_71" data-name="Path 71" d="M283.85,193c0,3.36-3.61,3.64-7,3.64h-1.29v.79c0,2.74,1,5,3.78,5,2.24,0,3.5-1.72,4-3.72l.49.06c-.58,2.57-2.33,4.43-5.12,4.43-3.94,0-5.8-2.9-5.8-6.84s2.11-6.85,6.1-6.85C281.52,189.52,283.85,190.54,283.85,193Zm-7.31,3.15c2.71,0,4.65-.44,4.65-3.15,0-1.73-.68-3-2.41-3-2.51,0-3.2,2.9-3.2,5.42v.77Z" fill="#d9b15c"/>
          <rect id="Rectangle_154" data-name="Rectangle 154" width="95.89" height="0.89" transform="translate(202.06 216.18)" fill="#ebebeb"/>
          <rect id="Rectangle_155" data-name="Rectangle 155" width="95.89" height="0.89" transform="translate(202.06 221.94)" fill="#ebebeb"/>
          <rect id="Rectangle_156" data-name="Rectangle 156" width="95.89" height="0.89" transform="translate(202.06 227.71)" fill="#ebebeb"/>
          <rect id="Rectangle_157" data-name="Rectangle 157" width="95.89" height="0.89" transform="translate(202.06 233.47)" fill="#ebebeb"/>
          <rect id="Rectangle_158" data-name="Rectangle 158" width="95.89" height="0.89" transform="translate(202.06 239.23)" fill="#ebebeb"/>
          <rect id="Rectangle_159" data-name="Rectangle 159" width="67.27" height="0.89" transform="translate(216.36 245)" fill="#ebebeb"/>
          <rect id="Rectangle_160" data-name="Rectangle 160" width="95.89" height="0.89" transform="translate(202.06 256.53)" fill="#ebebeb"/>
          <rect id="Rectangle_161" data-name="Rectangle 161" width="95.89" height="0.89" transform="translate(202.06 262.29)" fill="#ebebeb"/>
          <rect id="Rectangle_162" data-name="Rectangle 162" width="95.89" height="0.89" transform="translate(202.06 268.06)" fill="#ebebeb"/>
          <rect id="Rectangle_163" data-name="Rectangle 163" width="95.89" height="0.89" transform="translate(202.06 273.82)" fill="#ebebeb"/>
          <rect id="Rectangle_164" data-name="Rectangle 164" width="95.89" height="0.89" transform="translate(202.06 279.59)" fill="#ebebeb"/>
          <path id="Path_72" data-name="Path 72" d="M325.34,249.27v95.82H174.25V249.27c6.48,3.67,12.86,7.53,19.28,11.3s12.8,7.67,19.15,11.57q10.62,6.47,21.22,13.11l.22-.13c-.06,0-.11.11-.18.16q7.94,4.94,15.86,9.91c5.27-3.31,10.55-6.65,15.84-9.91-.07,0-.11-.12-.18-.16a1.2,1.2,0,0,0,.23.11q10.57-6.6,21.21-13.11,9.53-5.82,19.13-11.55C312.47,256.8,318.85,252.94,325.34,249.27Z" fill="#d9b15c"/>
          <g id="Group_1" data-name="Group 1" opacity="0.2">
            <path id="Path_73" data-name="Path 73" d="M325.34,249.27c-6.11,4.29-12.32,8.39-18.47,12.61s-12.41,8.26-18.65,12.35q-9.78,6.39-19.59,12.68l-.59.41q-8.67,5.55-17.4,11.09l-.86.53-.84-.53q-8.72-5.54-17.38-11.11c-.2-.12-.41-.25-.61-.39q-9.84-6.3-19.61-12.71c-6.21-4.06-12.43-8.19-18.63-12.32s-12.36-8.32-18.46-12.61c6.48,3.67,12.86,7.53,19.28,11.3s12.8,7.67,19.15,11.57q10.62,6.47,21.22,13.11h0q7.94,4.94,15.86,9.91c5.27-3.31,10.55-6.65,15.84-9.91h.05q10.57-6.6,21.21-13.11,9.53-5.82,19.13-11.55C312.47,256.8,318.85,252.94,325.34,249.27Z"/>
            <path id="Path_74" data-name="Path 74" d="M234.12,285.12c-.06,0-.11.11-.18.16-.79.68-1.59,1.36-2.38,2-3.79,3.2-7.67,6.26-11.62,9.23-4.81,3.68-9.73,7.19-14.68,10.69s-10,6.83-15.06,10.1-10.26,6.46-15.59,9.39c4.58-4,9.35-7.76,14.16-11.41s9.75-7.2,14.68-10.69,10-6.85,15.09-10.12c4.06-2.61,8.19-5.17,12.41-7.58,1-.57,2-1.11,3-1.66Z"/>
            <path id="Path_75" data-name="Path 75" d="M325,326.71c-5.33-2.93-10.5-6.13-15.58-9.39s-10.1-6.68-15.09-10.1-9.87-7-14.68-10.69c-3.93-3-7.81-6-11.58-9.21l-2.4-2c-.07,0-.11-.12-.18-.16a1.2,1.2,0,0,0,.23.11c1,.57,2,1.11,2.94,1.68,4.23,2.41,8.33,5,12.42,7.58,5.1,3.27,10.09,6.67,15.06,10.12s9.87,7,14.68,10.69S320.39,322.69,325,326.71Z"/>
          </g>
        </g>
      </g>
      <g id="freepik--Sparkles--inject-34">
        <path id="Path_152" data-name="Path 152" d="M229.52,296.45a36.351,36.351,0,0,1-8.68,0,36.348,36.348,0,0,1,8.68,0Z" fill="#455a64"/>
        <path id="Path_153" data-name="Path 153" d="M234.13,282.65a51,51,0,0,1,0,10.29,51,51,0,0,1,0-10.29Z" fill="#455a64"/>
        <path id="Path_154" data-name="Path 154" d="M239,296.12a36.349,36.349,0,0,1,8.68,0A36.349,36.349,0,0,1,239,296.12Z" fill="#455a64"/>
        <path id="Path_155" data-name="Path 155" d="M234.43,309.92a51.129,51.129,0,0,1,0-10.3A51.132,51.132,0,0,1,234.43,309.92Z" fill="#455a64"/>
        <path id="Path_156" data-name="Path 156" d="M241.45,304c-.12.08-.91-.82-1.76-2a7,7,0,0,1-1.33-2.31c.12-.08.9.81,1.76,2a7.08,7.08,0,0,1,1.33,2.31Z" fill="#455a64"/>
        <path id="Path_157" data-name="Path 157" d="M241,288.35c.11.09-.52,1-1.4,2.06s-1.69,1.81-1.8,1.72.52-1,1.4-2.06A6.359,6.359,0,0,1,241,288.35Z" fill="#455a64"/>
        <path id="Path_158" data-name="Path 158" d="M231.09,292.34c-.1.1-.86-.48-1.71-1.3s-1.44-1.57-1.34-1.67.87.48,1.71,1.3S231.19,292.23,231.09,292.34Z" fill="#455a64"/>
        <path id="Path_159" data-name="Path 159" d="M230.7,299.23c.11.09-.44,1-1.25,2s-1.54,1.79-1.66,1.7a5.8,5.8,0,0,1,1.25-2C229.84,299.91,230.59,299.14,230.7,299.23Z" fill="#455a64"/>
        <path id="Path_160" data-name="Path 160" d="M511.24,247.44a16.3,16.3,0,0,1-5.8,0A16.3,16.3,0,0,1,511.24,247.44Z" fill="#455a64"/>
        <path id="Path_161" data-name="Path 161" d="M514.33,239.54a16.811,16.811,0,0,1,0,5.89A16.808,16.808,0,0,1,514.33,239.54Z" fill="#455a64"/>
        <path id="Path_162" data-name="Path 162" d="M517.61,247.25a16.36,16.36,0,0,1,5.81,0,16.359,16.359,0,0,1-5.81,0Z" fill="#455a64"/>
        <path id="Path_163" data-name="Path 163" d="M514.53,255.14a16.808,16.808,0,0,1,0-5.89A16.811,16.811,0,0,1,514.53,255.14Z" fill="#455a64"/>
        <path id="Path_164" data-name="Path 164" d="M519.22,251.76c-.11.09-.66-.39-1.23-1.07s-.94-1.31-.83-1.4.66.38,1.23,1.06S519.33,251.67,519.22,251.76Z" fill="#455a64"/>
        <path id="Path_165" data-name="Path 165" d="M519,242.8c.1.1-.3.67-.89,1.27s-1.15,1-1.25.89.29-.66.88-1.26S518.85,242.7,519,242.8Z" fill="#455a64"/>
        <path id="Path_166" data-name="Path 166" d="M512.29,245.08c-.09.11-.62-.18-1.18-.64s-.95-.94-.86-1.05.63.18,1.19.64S512.39,245,512.29,245.08Z" fill="#455a64"/>
        <path id="Path_167" data-name="Path 167" d="M512,249c.11.1-.24.65-.78,1.24s-1.06,1-1.16.9.24-.66.78-1.25S511.93,248.93,512,249Z" fill="#455a64"/>
        <path id="Path_168" data-name="Path 168" d="M552.25,240.69l.28.69a4.9,4.9,0,0,0,2.66,2.63l.74.3-.71.29a4.86,4.86,0,0,0-2.68,2.68l-.2.5-.3-.63a4.89,4.89,0,0,0-2.71-2.46l-.65-.23.85-.41a4.84,4.84,0,0,0,2.36-2.5Z" fill="#455a64"/>
        <path id="Path_169" data-name="Path 169" d="M273.22,253.28l.28.68a4.85,4.85,0,0,0,2.65,2.63l.75.3-.72.29a4.88,4.88,0,0,0-2.67,2.68l-.2.5-.3-.63a4.83,4.83,0,0,0-2.71-2.45l-.65-.24.85-.41a4.92,4.92,0,0,0,2.36-2.5Z" fill="#455a64"/>
        <path id="Path_170" data-name="Path 170" d="M237.81,348.92l.14.34a2.46,2.46,0,0,0,1.33,1.32l.37.15-.36.14a2.45,2.45,0,0,0-1.34,1.34l-.1.25-.15-.31a2.43,2.43,0,0,0-1.35-1.23l-.33-.12.43-.2a2.48,2.48,0,0,0,1.18-1.25Z" fill="#455a64"/>
        <path id="Path_171" data-name="Path 171" d="M480.24,211.08l.28.68a4.85,4.85,0,0,0,2.65,2.63l.75.3-.72.29a4.88,4.88,0,0,0-2.67,2.68l-.2.5-.3-.63a4.83,4.83,0,0,0-2.71-2.45l-.65-.24.85-.41a4.88,4.88,0,0,0,2.36-2.5Z" fill="#455a64"/>
      </g>
    </g>
    <g id="freepik--paper-plane--inject-35" transform="translate(698.03 186.195)">
      <path id="Path_100" data-name="Path 100" d="M150.43,244.88l-.52-.54,1.46-1.38.51.55Z" fill="#263238"/>
      <path id="Path_101" data-name="Path 101" d="M157,324.14a37.014,37.014,0,0,1-4-.25l.08-.74c1.3.13,2.63.21,4,.24Zm5-.08v-.75c1.3-.08,2.64-.19,4-.35l.09.75c-1.36.15-2.71.29-4.03.35Zm-14-.93c-1.34-.28-2.66-.63-3.92-1l.23-.71c1.23.38,2.52.72,3.84,1Zm23.07-.18-.13-.74c1.28-.24,2.6-.51,3.9-.82l.18.73c-1.33.31-2.66.59-3.96.88Zm8.81-2.12-.21-.72c1.27-.37,2.55-.78,3.81-1.21l.24.71c-1.28.39-2.57.84-3.85,1.22Zm-40.52-.55a33.6,33.6,0,0,1-3.55-1.95l.4-.63a32.062,32.062,0,0,0,3.47,1.9Zm49.09-2.39-.27-.7c1.22-.48,2.47-1,3.7-1.52l.29.69c-1.24.53-2.5,1.05-3.73,1.53Zm-56.68-2.63a28.69,28.69,0,0,1-2.8-2.94l.58-.48a27.311,27.311,0,0,0,2.73,2.87Zm65-1-.32-.67c1.18-.57,2.38-1.17,3.58-1.79l.34.67q-1.845.945-3.63,1.8Zm8-4.18-.37-.65q1.75-1,3.45-2l.39.64c-1.14.69-2.3,1.36-3.47,2.02Zm-78.63-2a27,27,0,0,1-1.65-3.71l.71-.25a27.861,27.861,0,0,0,1.6,3.61Zm86.36-2.68-.41-.63q1.69-1.09,3.33-2.22l.42.62c-1.1.77-2.21,1.51-3.34,2.24Zm7.43-5.14-.44-.6c1.08-.8,2.14-1.6,3.19-2.42l.46.59c-1.06.83-2.14,1.64-3.21,2.44Zm-96.72-.8a31.06,31.06,0,0,1-.42-4h.74a31.659,31.659,0,0,0,.42,3.94Zm103.85-4.76-.48-.58c1-.85,2.06-1.71,3.07-2.58l.49.57c-1.02.89-2.04,1.75-3.08,2.6Zm-103.39-4.26-.75-.07c.13-1.31.32-2.65.59-4l.73.14c-.24,1.34-.45,2.66-.57,3.94Zm110.24-1.65-.5-.55c1-.9,2-1.8,2.94-2.71l.51.55c-.98.92-1.96,1.83-2.95,2.72Zm6.58-6.16-.52-.54,2.86-2.8.53.53Zm-115-.95-.72-.22c.39-1.25.83-2.53,1.33-3.81l.69.27c-.52,1.27-.96,2.54-1.34,3.77Zm121.45-5.42-.54-.52c.94-.95,1.87-1.91,2.8-2.87l.54.52Zm-118.16-2.91-.67-.33c.57-1.18,1.19-2.39,1.85-3.58l.66.36c-.7,1.2-1.31,2.39-1.88,3.56Zm124.44-3.57-.54-.52,2.77-2.9.54.52Zm-120-4.27-.63-.4c.7-1.11,1.46-2.23,2.24-3.35l.61.44c-.86,1.11-1.61,2.22-2.31,3.32Zm126.28-2.27-.55-.51,2.77-2.91.54.52Zm-121.08-5.06-.59-.46c.8-1,1.65-2.08,2.53-3.13l.57.48c-.93,1.05-1.81,2.1-2.6,3.12Zm127.31-1.46-.54-.52q1.38-1.44,2.79-2.88l.54.52q-1.52,1.45-2.88,2.89Zm-121.5-5.41-.55-.5c.89-1,1.81-1.95,2.76-2.93l.53.52c-1.03.98-1.97,1.96-2.83,2.92Zm127.79-1-.53-.52c.94-.95,1.88-1.9,2.84-2.85l.52.54Zm6.41-6.34-.52-.54c.95-.93,1.92-1.86,2.89-2.78l.52.54c-1.07.89-2.03,1.81-2.98,2.74Zm6.54-6.2-.5-.55c1-.9,2-1.8,3-2.71l.51.56Zm6.72-6-.5-.57,3-2.61.49.57c-1.07.84-2.08,1.69-3.08,2.56Zm6.89-5.81-.47-.58c1-.84,2.07-1.68,3.13-2.51l.46.58Zm7.08-5.57-.46-.6c1.06-.8,2.13-1.61,3.22-2.41l.44.61c-1.17.75-2.24,1.55-3.29,2.35Zm7.26-5.33-.43-.62c1.08-.76,2.18-1.53,3.29-2.29l.42.61c-1.2.72-2.29,1.48-3.37,2.24Zm7.44-5.09-.41-.62c1.1-.73,2.23-1.46,3.37-2.19l.4.63c-1.23.68-2.35,1.4-3.45,2.13Zm7.61-4.83-.4-.64c1.13-.69,2.28-1.38,3.44-2.07l.38.65c-1.24.63-2.39,1.32-3.51,2.01Zm7.75-4.58-.37-.65c1.16-.66,2.32-1.31,3.51-2l.36.65c-1.22.64-2.44,1.3-3.59,1.95Zm7.91-4.33-.36-.67c1.18-.62,2.36-1.24,3.57-1.85l.34.67c-1.29.56-2.48,1.18-3.64,1.8Zm8-4.1-.33-.67c1.19-.59,2.39-1.17,3.61-1.75l.33.67c-1.24.53-2.49,1.12-3.68,1.7Zm8.14-3.87-.31-.68,3.66-1.65.31.68Zm8.25-3.65-.3-.69c1.23-.52,2.46-1,3.71-1.55l.28.69Z" fill="#263238"/>
      <path id="Path_102" data-name="Path 102" d="M376.53,181l-.28-.7,1.86-.73.28.69Z" fill="#263238"/>
      <path id="Path_103" data-name="Path 103" d="M374.15,168.5l-6.61,18.15,13.88-10.83,53.04-19.24Z" fill="#d9b15c"/>
      <path id="Path_104" data-name="Path 104" d="M374.15,168.5l-6.61,18.15,13.88-10.83,53.04-19.24Z" opacity="0.1"/>
      <path id="Path_105" data-name="Path 105" d="M383.19,180.05l-15.65,6.6,13.88-10.83Z" fill="#263238"/>
      <path id="Path_106" data-name="Path 106" d="M381.42,175.82l53.04-19.24-43.51,42.46Z" fill="#d9b15c"/>
      <path id="Path_107" data-name="Path 107" d="M374.15,168.5l-22.04-14.23,82.35,2.31Z" fill="#d9b15c"/>
    </g>
  </g>
</svg>
